<mxfile host="app.diagrams.net" modified="2024-07-03T04:31:34.790Z" agent="Mozilla/5.0 (Macintosh; Intel Mac OS X 10_15_7) AppleWebKit/537.36 (KHTML, like Gecko) Chrome/126.0.0.0 Safari/537.36" version="24.6.4" etag="5gE6_-CN2dSNG55ifDSq" type="github">
  <diagram name="Page-1" id="2SlS0HLz48MxNzFtmip8">
    <mxGraphModel>
      <root>
        <mxCell id="0" />
        <mxCell id="1" parent="0" />
      </root>
    </mxGraphModel>
  </diagram>
</mxfile>
